<svg xmlns="http://www.w3.org/2000/svg" width="9" height="22" viewBox="0 0 9 22"><g><g><path fill="#d1d1d1" d="M4.668 4.375a2.46 2.46 0 0 1-.751-1.809c0-.707.25-1.312.75-1.816.5-.502 1.1-.753 1.8-.753.699 0 1.296.252 1.79.753a2.49 2.49 0 0 1 .744 1.816c0 .708-.247 1.312-.743 1.81a2.432 2.432 0 0 1-1.79.747 2.46 2.46 0 0 1-1.8-.748zM8.02 19.881a4.68 4.68 0 0 0 .711-.257l-.285 1.256c-.854.364-1.536.641-2.045.832-.508.19-1.1.286-1.773.286-1.034 0-1.839-.273-2.412-.816-.574-.547-.861-1.238-.861-2.075 0-.326.02-.659.064-1 .044-.34.113-.724.208-1.153l1.067-4.079c.096-.39.176-.76.241-1.11.065-.348.098-.668.098-.956 0-.521-.1-.886-.3-1.09-.198-.205-.578-.308-1.142-.308-.275 0-.559.047-.848.14-.29.092-.539.182-.747.265l.285-1.258c.7-.307 1.368-.57 2.008-.789.64-.22 1.243-.329 1.815-.329 1.027 0 1.82.269 2.376.804.556.536.835 1.232.835 2.088 0 .179-.018.49-.057.937-.039.447-.11.857-.215 1.23l-1.063 4.063c-.087.326-.165.7-.233 1.12-.07.417-.104.735-.104.949 0 .54.112.908.335 1.103.224.196.612.294 1.163.294.258 0 .553-.05.88-.147z"/></g></g></svg>