<svg xmlns="http://www.w3.org/2000/svg" width="108" height="81" viewBox="0 0 108 81">

            <path fill="#57855f"
                  d="M47.044 72.964L5.428 37.544l-4.945-4.23-.089-.068a1.355 1.355 0 0 1-.396-.965c0-.366.14-.71.396-.964L31.344.423a.75.75 0 0 0 .071-.061l.05-.04c.283-.241.639-.362 1-.329.361.029.693.2.933.482l39.543 46.387v.044l.138.138a.503.503 0 0 1 .046.053l.08.129c.043.065.089.169.127.29l.028.143a.482.482 0 0 1 .018.086l1.176 16.322c.032.379-.114.772-.393 1.05l-8.97 8.969c-.25.248-.605.39-.978.39l-.104.002-16.261-1.173a1.924 1.924 0 0 0-.118-.02c-.025-.003-.05-.007-.078-.013l-.08-.012a1.778 1.778 0 0 1-.312-.137l-.103-.096h-.031a2.112 2.112 0 0 0-.082-.063zm23.825-22.008L51.024 70.794l12.658.893 8.08-8.077zM6.252 34.636L34.7 6.195l-2.431-2.86L3.363 32.208zm2.082 1.778l39.527 33.66 22.286-22.28L36.477 8.28zM35.2 42.227a1.354 1.354 0 0 1-.396-.964c0-.367.14-.71.396-.965l2.106-2.106-2.106-2.104a1.354 1.354 0 0 1-.396-.965c0-.367.14-.71.396-.965.51-.51 1.417-.511 1.929-.002l2.08 2.134 2.138-2.137c.247-.255.58-.397.938-.4h.01c.364 0 .72.148.983.41.255.247.397.58.4.938a1.39 1.39 0 0 1-.406.987l-2.105 2.104 2.105 2.106c.256.255.397.598.397.965 0 .366-.141.709-.397.964-.511.512-1.419.512-1.93 0l-2.106-2.104-2.105 2.104c-.512.512-1.42.512-1.931 0zm31.096 34.757c0-.364.145-.705.414-.965l9.362-9.36c.266-.265.615-.398.965-.398s.7.133.965.399c.256.255.397.598.397.965 0 .366-.141.71-.397.965l-9.362 9.36a1.368 1.368 0 0 1-1.93 0l-.006-.006a1.328 1.328 0 0 1-.408-.96zm19.429 3.715c-.807.201-1.65.308-2.439.308-2.494 0-5.216-.95-8.097-2.825a1.34 1.34 0 0 1-.599-.85 1.369 1.369 0 0 1 .19-1.046c.411-.631 1.247-.801 1.9-.389 3.186 2.06 5.983 2.783 8.323 2.15 1.906-.544 2.992-1.798 4.37-3.389 1.29-1.5 2.894-3.368 5.575-4.494 3.364-1.416 7.447-1.213 12.138.604a1.367 1.367 0 0 1 .785 1.781 1.368 1.368 0 0 1-1.78.785c-4-1.537-7.392-1.744-10.08-.616-2.01.827-3.209 2.2-4.477 3.653l-.095.108c-1.406 1.63-3 3.475-5.714 4.22z"/>
</svg>