<svg xmlns="http://www.w3.org/2000/svg" width="17" height="17" viewBox="0 0 17 17">
            <path fill="#000103"
                  d="M17 13.441c0 .505-.212.99-.612 1.406-.168.176-.343.344-.493.486-.225.208-.44.428-.639.657l-.008.01-.001.003-.016.017c-.601.65-1.37.98-2.286.98-.075 0-.157-.004-.242-.008-1.31-.086-2.486-.573-3.364-.987a17.789 17.789 0 0 1-5.935-4.625C2.045 9.754 1.124 8.224.505 6.565c-.254-.688-.581-1.73-.49-2.841.055-.697.362-1.35.863-1.84L2.16.596C2.57.206 3.05 0 3.552 0c.501 0 .976.206 1.374.595.213.197.438.42.707.698.114.122.232.239.346.352l1.026 1.02c.846.843.846 1.974 0 2.816l-.156.158-.159.16-.08.08c-.226.23-.46.465-.707.695.22.46.515.913.943 1.45C7.803 9.196 8.8 10.1 9.893 10.79c.1.063.225.125.356.19a16.717 16.717 0 0 0 .186.095l1.1-1.092c.409-.407.893-.623 1.399-.623.508 0 .987.218 1.384.63l2.056 2.055c.41.404.626.887.626 1.397zm-1.576-.46l-2.08-2.07c-.136-.146-.277-.22-.42-.22-.18 0-.344.126-.45.232L11.19 12.2c-.204.203-.435.306-.687.306a.991.991 0 0 1-.443-.11c-.017-.008-.03-.016-.04-.022a.047.047 0 0 0-.01-.005L10 12.362c-.103-.064-.226-.125-.357-.19a5.105 5.105 0 0 1-.476-.258c-1.218-.768-2.319-1.765-3.366-3.048l-.01-.012c-.585-.74-.966-1.358-1.235-2.007l-.004-.01-.011-.034c-.081-.254-.144-.631.224-1.006a.2.2 0 0 1 .032-.03l.004-.004c.313-.28.6-.564.934-.904l.003-.003.212-.21.109-.11c.168-.167.25-.319.25-.463 0-.144-.082-.296-.25-.463L5.034 2.59a58.863 58.863 0 0 1-.358-.364 18.29 18.29 0 0 0-.67-.663l-.015-.015c-.08-.08-.24-.214-.432-.214-.144 0-.302.076-.456.22L1.827 2.826a1.548 1.548 0 0 0-.473 1.005c-.053.668.074 1.368.412 2.27.561 1.507 1.41 2.915 2.674 4.43a16.381 16.381 0 0 0 5.483 4.273c.762.363 1.777.789 2.866.858.05.004.107.004.162.004.54 0 .937-.167 1.288-.54.23-.264.478-.519.735-.757l.081-.08a10.6 10.6 0 0 0 .337-.335l.022-.084h.056c.275-.31.26-.587-.046-.889z"/>
</svg>