<svg xmlns="http://www.w3.org/2000/svg" width="98" height="103" viewBox="0 0 98 103">
    <path fill="#57855f"
          d="M18.166 32.246c.845 0 1.53.68 1.53 1.52s-.685 1.52-1.53 1.52h-.203c-.845 0-1.53-.68-1.53-1.52s.685-1.52 1.53-1.52zm51.98 48.439c-.844 0-1.528-.68-1.528-1.52s.684-1.52 1.529-1.52h.203c.845 0 1.53.68 1.53 1.52s-.685 1.52-1.53 1.52zm11.416 0c-.845 0-1.529-.68-1.529-1.52v-9.931c0-.84.684-1.52 1.529-1.52.844 0 1.529.68 1.529 1.52v9.93c0 .84-.685 1.52-1.53 1.52zm16.117 11.07a1.12 1.12 0 0 1-.796.338 1.098 1.098 0 0 1-.801-.325l-7.207-7.125a1.905 1.905 0 0 0-2.183-.352l-9.458 4.681a1.875 1.875 0 0 0-1.053 1.69v11.22c0 .617-.504 1.118-1.16 1.118-.62 0-1.124-.501-1.124-1.118V90.66c0-.72-.402-1.366-1.049-1.688l-11.376-5.655a1.111 1.111 0 0 1-.62-1V74.08c0-.616.503-1.118 1.16-1.118.62 0 1.123.502 1.123 1.118v6.358c0 .719.402 1.365 1.05 1.687L74.19 87.1a1.916 1.916 0 0 0 1.698 0l10.006-4.975a1.876 1.876 0 0 0 1.049-1.687v-12.48c0-.718-.401-1.364-1.046-1.686l-9.962-4.971a1.916 1.916 0 0 0-1.702 0l-11.648 5.81a1.136 1.136 0 0 1-1.006 0l-11.707-5.814a1.914 1.914 0 0 0-1.696 0l-11.722 5.816c-.315.155-.69.156-1.004 0l-13.114-6.497a1.112 1.112 0 0 1-.623-1V45.259c0-.719-.401-1.365-1.047-1.686L11.301 38.9a1.902 1.902 0 0 0-2.197.356l-3.872 3.876a1.13 1.13 0 0 1-1.59.006l-.037-.037a1.108 1.108 0 0 1-.334-.79c-.002-.298.114-.58.326-.792l4.52-4.532c.355-.356.55-.827.55-1.329V21.943a1.87 1.87 0 0 0-.553-1.33L.33 12.84a1.106 1.106 0 0 1-.327-.794c.001-.3.12-.581.335-.791l.046-.045a1.132 1.132 0 0 1 1.584.008l7.15 7.128c.579.578 1.462.72 2.195.354l9.355-4.672a1.876 1.876 0 0 0 1.046-1.686V1.117c0-.616.504-1.117 1.16-1.117.62 0 1.124.501 1.124 1.117V12.34c0 .72.402 1.366 1.05 1.687l11.375 5.656c.383.19.621.573.621 1v8.237c0 .616-.504 1.117-1.16 1.117-.62 0-1.124-.5-1.124-1.117v-6.358c0-.72-.402-1.366-1.049-1.687L23.704 15.9a1.916 1.916 0 0 0-1.697 0L12 20.875a1.875 1.875 0 0 0-1.049 1.687v12.476c0 .72.403 1.368 1.052 1.69l10.05 4.976c.53.263 1.163.262 1.693 0l11.741-5.817c.315-.156.69-.156 1.005.001l11.682 5.813a1.918 1.918 0 0 0 1.699 0l11.667-5.812a1.138 1.138 0 0 1 1.008 0l13.013 6.492c.383.192.62.575.62 1v14.357c0 .72.403 1.367 1.051 1.689l9.447 4.68c.73.361 1.606.22 2.184-.35l3.938-3.89a1.12 1.12 0 0 1 .792-.325h.006c.3 0 .583.119.806.344a1.114 1.114 0 0 1-.008 1.578l-4.609 4.544c-.356.352-.561.84-.561 1.34v13.704c0 .499.204.986.56 1.338l7.88 7.793c.436.43.441 1.136.012 1.573zM47.805 45.262c0-.72-.402-1.366-1.049-1.687L36.75 38.599a1.917 1.917 0 0 0-1.698 0l-10.006 4.975a1.874 1.874 0 0 0-1.049 1.687v12.478c0 .72.402 1.366 1.05 1.688L35.051 64.4c.266.132.558.198.849.198.291 0 .583-.066.849-.198l10.006-4.974a1.876 1.876 0 0 0 1.049-1.688zm26.092 0c0-.72-.402-1.366-1.05-1.687l-10.005-4.975a1.913 1.913 0 0 0-1.697 0l-10.007 4.975a1.874 1.874 0 0 0-1.049 1.687v12.478c0 .72.402 1.366 1.049 1.688L61.144 64.4c.266.132.558.198.849.198.291 0 .583-.066.849-.198l10.006-4.974a1.875 1.875 0 0 0 1.049-1.688zM30.52 46.534v9.931a1.14 1.14 0 0 1-1.142 1.136 1.14 1.14 0 0 1-1.142-1.136v-9.93a1.14 1.14 0 0 1 1.142-1.136c.63 0 1.142.51 1.142 1.135z"/>
</svg>