<svg xmlns="http://www.w3.org/2000/svg" width="116" height="92" viewBox="0 0 116 92">
    <path fill="#57855f"
          d="M116 5.724l-1.964 1.012c-9.517 4.907-15.806 14.224-21.357 22.449-5.906 8.746-11.485 17.008-19.647 17.008-2.5 0-5.074-.738-7.867-2.256l-1.171-.637-.657 1.165c-4.353 7.723-6.469 13.424-6.469 17.43l-.004 30.103h-2.115V62.475c0-5.683-1.729-11.019-5.138-15.857l-.86-1.222-1.132.973c-2.724 2.344-5.399 3.483-8.18 3.483-5.773-.002-11.037-5.122-16.61-10.542-5.777-5.618-12.324-11.985-20.698-14.275L0 24.452l1.788-1.306c7.377-5.388 15.401-8.236 23.204-8.236 6.044 0 11.84 1.669 16.758 4.826 4.523 2.904 7.935 6.853 9.608 11.12 1.702 4.338 1.442 8.644-.734 12.124l-.501.8.568.755c1.746 2.318 3.14 4.767 4.142 7.279l1.234 3.093 1.28-3.074c1.109-2.661 2.578-5.615 4.368-8.781l.54-.955-.81-.737c-4.465-4.067-5.943-10.297-4.056-17.093 1.715-6.17 6.082-12.234 11.981-16.634C76.066 2.638 84.221-.001 92.954-.001c6.844 0 13.92 1.62 21.03 4.818zM49.628 40.272c1.314-3.286.597-6.51-.236-8.636-2.846-7.254-12.14-14.597-24.4-14.597-6.035 0-12.059 1.736-17.905 5.162L4.81 23.534 7.21 24.63c6.729 3.073 12.232 8.427 17.09 13.15 5.485 5.335 10.222 9.943 15.141 9.944h.003c2.27 0 4.516-.99 6.865-3.025l1.082-.938-.984-1.042c-4.123-4.363-8.843-7.359-11.989-9.355-.403-.256-.78-.496-1.127-.72l1.227-1.737c.3.193.625.4.97.619l.095.06c3.026 1.922 7.6 4.826 11.817 9.135l1.454 1.487zm61.475-34.445l-2.51-.885c-5.294-1.868-10.556-2.815-15.639-2.815-10.457 0-17.913 3.924-22.326 7.216-5.53 4.124-9.613 9.773-11.203 15.497-1.552 5.588-.607 10.617 2.662 14.164l1.21 1.313.94-1.521c3.876-6.273 7.838-11.601 9.559-13.851l1.657 1.328c-1.613 2.117-5.316 7.105-8.953 12.894-.224.359-.444.713-.662 1.066l-.768 1.246 1.288.685c2.406 1.28 4.589 1.9 6.674 1.9 7.044 0 12.075-7.452 17.901-16.081 4.822-7.143 10.288-15.238 17.986-20.627z"/>
</svg>