<svg xmlns="http://www.w3.org/2000/svg" width="15" height="16" viewBox="0 0 15 16">
            <path fill="#000103"
                  d="M15 13.732c0 1.256-1.326 2.277-2.956 2.277H2.966c-1.63 0-2.955-1.021-2.955-2.277 0-.015.001-.03.003-.044l.001-.013L1.055 3.61c.032-.327.345-.575.728-.575h1.916c.068-.791.463-1.527 1.127-2.09C5.546.335 6.497 0 7.506 0c1.008 0 1.959.335 2.678.945.664.563 1.06 1.299 1.128 2.09h1.916c.376 0 .696.253.728.576l1.038 10.053c.006.029.006.052.006.068zM9.84 3.035c-.144-.995-1.145-1.774-2.335-1.774s-2.19.779-2.334 1.774zM3.684 5.41V4.3H2.45l-.974 9.458c.02.548.685.992 1.49.992h9.077c.804 0 1.47-.444 1.49-.992L12.555 4.3h-1.233v1.11c0 .347-.329.63-.733.63-.404 0-.733-.283-.733-.63V4.3H5.151v1.11c0 .347-.33.63-.733.63-.405 0-.733-.283-.733-.63z"/>
</svg>