<svg xmlns="http://www.w3.org/2000/svg" width="19" height="17" viewBox="0 0 19 17">
            <path fill="#000103"
                  d="M18.439 5.96a5.216 5.216 0 0 1-1.516 3.693l-7.244 7.29a.66.66 0 0 1-.465.193.661.661 0 0 1-.467-.199l-7.228-7.3C.54 8.647 0 7.337 0 5.947a5.194 5.194 0 0 1 1.512-3.693A5.102 5.102 0 0 1 5.16.727c1.38 0 2.68.545 3.66 1.535l.404.407.396-.4A5.11 5.11 0 0 1 13.278.74c1.38 0 2.678.542 3.653 1.527a5.194 5.194 0 0 1 1.508 3.694zm-1.324 0c0-1.04-.4-2.016-1.125-2.75a3.809 3.809 0 0 0-2.716-1.134 3.805 3.805 0 0 0-2.72 1.14l-.863.87a.655.655 0 0 1-.936 0l-.87-.879a3.809 3.809 0 0 0-2.724-1.14 3.793 3.793 0 0 0-2.712 1.136 3.862 3.862 0 0 0-1.125 2.745c0 1.037.4 2.013 1.128 2.748l6.762 6.83 6.777-6.82a3.86 3.86 0 0 0 1.124-2.746z"/>
</svg>