<svg xmlns="http://www.w3.org/2000/svg" width="20" height="20" viewBox="0 0 20 20">
            <path fill="#afbabd"
                  d="M15.37 3.342c-.342 0-.678.139-.92.381a1.308 1.308 0 0 0-.382.92c0 .342.14.678.382.92s.578.382.92.382c.343 0 .677-.14.92-.381a1.31 1.31 0 0 0 .38-.92c0-.344-.138-.68-.38-.921a1.307 1.307 0 0 0-.92-.381zM10 13.379A3.383 3.383 0 0 1 6.62 10 3.383 3.383 0 0 1 10 6.621a3.383 3.383 0 0 1 3.379 3.38 3.383 3.383 0 0 1-3.38 3.378zm0-8.532A5.16 5.16 0 0 0 4.847 10 5.16 5.16 0 0 0 10 15.153 5.16 5.16 0 0 0 15.153 10 5.16 5.16 0 0 0 10 4.847zm4.48 13.378H5.52a3.749 3.749 0 0 1-3.746-3.744V5.519A3.749 3.749 0 0 1 5.52 1.775h8.962a3.75 3.75 0 0 1 3.744 3.744v8.962a3.749 3.749 0 0 1-3.744 3.744zM14.48 0H5.52A5.525 5.525 0 0 0 0 5.52v8.96A5.525 5.525 0 0 0 5.52 20h8.96A5.525 5.525 0 0 0 20 14.48V5.52A5.525 5.525 0 0 0 14.48 0z"/>
</svg>