<svg xmlns="http://www.w3.org/2000/svg" width="16" height="16" viewBox="0 0 16 16">
            <path fill="#000103"
                  d="M16.007 16h-1.25c0-3.722-3.03-6.75-6.752-6.75-3.723 0-6.752 3.028-6.752 6.75H.003c0-2.137.832-4.146 2.344-5.657a7.967 7.967 0 0 1 3.04-1.907A4.624 4.624 0 0 1 3.38 4.624 4.63 4.63 0 0 1 8.005 0a4.63 4.63 0 0 1 4.626 4.624c0 1.58-.796 2.977-2.009 3.812a7.967 7.967 0 0 1 3.041 1.907A7.946 7.946 0 0 1 16.007 16zM11.38 4.624A3.38 3.38 0 0 0 8.005 1.25a3.38 3.38 0 0 0-3.376 3.374A3.38 3.38 0 0 0 8.005 8a3.38 3.38 0 0 0 3.376-3.376z"/>
</svg>