<svg xmlns="http://www.w3.org/2000/svg" width="21" height="13" viewBox="0 0 21 13">
            <path fill="#b4bfc1"
                  d="M18.074 8.266c.696.744 1.432 1.444 2.056 2.263.277.364.538.74.738 1.162.283.6.026 1.261-.466 1.297l-3.06-.001c-.788.071-1.418-.276-1.947-.866-.424-.472-.816-.975-1.223-1.463a3 3 0 0 0-.55-.535c-.418-.296-.78-.206-1.02.27-.243.486-.298 1.022-.322 1.562-.032.788-.25.996-.974 1.032-1.546.08-3.014-.177-4.378-1.03-1.202-.752-2.134-1.814-2.945-3.017-1.58-2.341-2.79-4.914-3.877-7.559C-.139.785.04.465.641.454 1.64.433 2.637.434 3.637.452c.405.007.674.261.83.68.54 1.453 1.201 2.835 2.03 4.116.221.34.447.682.767.922.355.265.625.177.792-.255.106-.274.152-.57.176-.863.08-1.01.09-2.019-.049-3.025-.085-.628-.409-1.035-.982-1.154-.292-.06-.248-.18-.107-.362.246-.315.477-.51.938-.51h3.458c.544.117.665.384.74.983l.003 4.202c-.006.231.106.92.487 1.073.306.11.508-.158.691-.37.828-.961 1.419-2.097 1.947-3.273.234-.517.435-1.054.63-1.591.145-.398.372-.594.782-.586l3.328.004c.098 0 .198.001.294.02.56.104.714.368.541.966-.273.94-.804 1.724-1.323 2.51-.555.84-1.148 1.652-1.699 2.497-.505.771-.465 1.16.163 1.83z"/>
</svg>